inDegrees=no
num_controls=7
num_derivatives=13
num_iterations=278
num_multipliers=7
num_parameters=0
num_slacks=7
num_states=26
objective=0.441590
objective_accelerations=0.000000
objective_balance=0.003473
objective_effort=0.034597
objective_height=0.306936
objective_ligament=0.096583
solver_duration=3926.131933
status=Solve_Succeeded
success=true
DataType=double
version=3
OpenSimVersion=4.5
endheader
time	/jointset/ground_pelvis/pelvis_tilt/value	/jointset/ground_pelvis/pelvis_tx/value	/jointset/ground_pelvis/pelvis_ty/value	/jointset/hip_l/hip_flexion_l/value	/jointset/hip_l/hip_adduction_l/value	/jointset/hip_l/hip_rotation_l/value	/jointset/back/lumbar_extension/value	/jointset/patellofemoral_l/patellar_flexion_l/value	/jointset/knee_l/knee_flexion_l/value	/jointset/knee_l/knee_adduction_l/value	/jointset/knee_l/knee_rotation_l/value	/jointset/ankle_l/ankle_angle_l/value	/jointset/subtalar_l/subtalar_angle_l/value	/jointset/ground_pelvis/pelvis_tilt/speed	/jointset/ground_pelvis/pelvis_tx/speed	/jointset/ground_pelvis/pelvis_ty/speed	/jointset/hip_l/hip_flexion_l/speed	/jointset/hip_l/hip_adduction_l/speed	/jointset/hip_l/hip_rotation_l/speed	/jointset/back/lumbar_extension/speed	/jointset/patellofemoral_l/patellar_flexion_l/speed	/jointset/knee_l/knee_flexion_l/speed	/jointset/knee_l/knee_adduction_l/speed	/jointset/knee_l/knee_rotation_l/speed	/jointset/ankle_l/ankle_angle_l/speed	/jointset/subtalar_l/subtalar_angle_l/speed	/forceset/tau_hip_flexion_l	/forceset/tau_hip_adduction_l	/forceset/tau_hip_rotation_l	/forceset/tau_knee_flexion_l	/forceset/tau_ankle_angle_l	/forceset/tau_subtalar_angle_l	/forceset/tau_lumbar_extension	lambda_cid13_p0	lambda_cid13_p1	lambda_cid13_p2	lambda_cid13_p3	lambda_cid13_p4	lambda_cid13_p5	lambda_cid14_p0	/jointset/ground_pelvis/pelvis_tilt/accel	/jointset/ground_pelvis/pelvis_tx/accel	/jointset/ground_pelvis/pelvis_ty/accel	/jointset/hip_l/hip_flexion_l/accel	/jointset/hip_l/hip_adduction_l/accel	/jointset/hip_l/hip_rotation_l/accel	/jointset/back/lumbar_extension/accel	/jointset/patellofemoral_l/patellar_flexion_l/accel	/jointset/knee_l/knee_flexion_l/accel	/jointset/knee_l/knee_adduction_l/accel	/jointset/knee_l/knee_rotation_l/accel	/jointset/ankle_l/ankle_angle_l/accel	/jointset/subtalar_l/subtalar_angle_l/accel	gamma_cid13_p0	gamma_cid13_p1	gamma_cid13_p2	gamma_cid13_p3	gamma_cid13_p4	gamma_cid13_p5	gamma_cid14_p0
0	-0.03682343373391044	0.05667771237618861	0.9203416234733502	0.3085816938045678	-0.2956397468694571	-0.3016064989883978	-0.3879492264334186	0.2499269421184916	0.2499269421184919	-0.1745317627961717	-0.1745316737437654	-0.0008036623358878681	0.0004383455345829357	0	0	0	0	0	0	0	0	0	0	0	0	0	0.4518684403664421	0.005855763206296568	-0.02380963041125778	-0.197437160552745	0.2056774730641678	-0.004979734090283208	-0.7557687605803405	64.9691152318471	-12.3125563630749	5.049177882478198	-68.84072193086452	4.312655231796973	-100.368602960642	-23.23522948037537	184.1771578651075	-12.47585066313141	16.88409313701991	-81.41334236532867	103.9048178671735	-11.16379397320491	-272.1177250896357	135.5107170572773	135.5107170571973	261.6252283936865	-3.230771479455094	105.8112258142856	144.2340185098934	0.000309982548994684	0.002985415855272422	-0.002738145810638224	0.0001418345316238429	0.001645242848665764	0.004325874934660366	0.0003350590922120172
0.01	-0.02863518318789282	0.0560973871220305	0.9210817567220964	0.3048573926919956	-0.2910386781355143	-0.3020222776058878	-0.4001399036320434	0.2557037596297842	0.2557037596297856	-0.163011274217304	-0.1744660960084651	0.003750977290194963	0.0068013609618894	1.536658401664286	-0.1118442610905841	0.1343152558136336	-0.7149765631677862	0.8562106834330425	-0.09102512011524311	-2.296617795638636	1.052486788220976	1.052486788220784	2.143373769952148	0.0238299131765352	0.8343080234790755	1.186186392346703	0.3779753137802097	-0.03033542487944031	-0.02328426532542609	-0.2260407289274639	0.1768951995717092	-0.02322804730786068	-0.566821010980385	46.0564199597012	-0.6896612455589988	2.758168647489459	-8.490793681302909	-103.9508661355549	-77.78615515089537	-23.2372023406493	123.226467377417	-9.877228464133674	9.977581282935091	-62.06769164933539	67.10861412976956	-8.740081374817962	-187.2061601882811	74.61914078041829	74.61914078043969	166.6625607355856	6.277597159252369	60.76074296869091	92.70211235671906	0.000262671675552573	0.001310562106691137	-0.001090007317816916	2.947439967284721e-05	0.0007148357822255653	0.001804406165788749	0.0002026536882612842
0.02	-0.008117091413164405	0.05453091633054474	0.922819510424858	0.294877750276376	-0.2797496184575645	-0.3034819494933562	-0.4310512294645308	0.2689057412384693	0.2689057412384682	-0.1348632260510037	-0.1739446742527641	0.0143527276218629	0.02240447286459487	2.465968245741684	-0.197229107465528	0.1995240908030911	-1.251068260608837	1.33759818880208	-0.2087786539958439	-3.744129726769445	1.485032819478376	1.485032819478397	3.325511917488563	0.09116880407485223	1.209422141117048	1.84801929507982	0.3040821871939793	-0.06652661296516367	-0.02275890023961996	-0.2546442973021985	0.1481129260792429	-0.0414763605254265	-0.3778732613804225	27.70132426011705	11.19431925768327	0.009584274990972296	52.11547190486559	-200.9852544096537	-52.18598184636537	-23.25172917200901	62.70744634772985	-7.183967720003227	3.062808972184684	-45.63636921998155	28.94018225437243	-16.50947672627648	-102.2965521880705	11.5225656645623	11.52256566456321	69.37810391054005	5.471024064901255	13.97244464606514	39.36332058717624	0.000215360802110462	-0.0003642916418901479	0.000558131175004392	-8.288573227814845e-05	-0.0002155712842146333	-0.0007170626030828684	7.024828431055131e-05
0.03	0.01906859336409478	0.05222704437221238	0.9248909251676689	0.2801905440369907	-0.2654707491987842	-0.3059803719271103	-0.4727432724270944	0.283634884400809	0.2836348844008095	-0.09953339467346593	-0.1723861729534831	0.02661492547356412	0.04211586617415422	2.914556907432394	-0.261358559024281	0.2093190481268401	-1.660859336430164	1.45926052557527	-0.2467067020795212	-4.517513521970114	1.43368622237494	1.43368622237496	3.598265271969596	0.2328746140902763	1.206379546751248	2.01572518147659	0.2622817346730309	-0.08359967836115369	-0.01141488819672883	-0.2707586595085359	0.1317384900613811	-0.07836097324220516	-0.2693461086708895	15.19935174918392	30.08577711635332	-3.781967952010758	93.15994640519899	-262.7765985148858	-10.11737359470861	-23.24971213673715	27.48555726837044	-5.716456223694374	-0.9250058096680066	-34.78255248419908	-5.142407054413333	9.084524749540918	-53.34449162061462	-17.54322567550945	-17.54322567551018	-15.09796674389371	20.48396789042229	-12.88692122521797	-6.319945811773129	2.023149635533284e-05	-0.0002051384743913108	0.0002708651297438156	-2.303325731757526e-05	-8.925933989859013e-05	-0.0003180347744598018	-1.001725318414445e-05
